<?xml version="1.0" standalone="no"?>
<!DOCTYPE svg PUBLIC "-//W3C//DTD SVG 20010904//EN"
 "http://www.w3.org/TR/2001/REC-SVG-20010904/DTD/svg10.dtd">
<svg version="1.0" xmlns="http://www.w3.org/2000/svg"
 width="657.000000pt" height="657.000000pt" viewBox="0 0 657.000000 657.000000"
 preserveAspectRatio="xMidYMid meet">
<metadata>
Created by potrace 1.11, written by Peter Selinger 2001-2013
</metadata>
<g transform="translate(0.000000,657.000000) scale(0.100000,-0.100000)"
fill="#000000" stroke="none">
<path d="M2555 6280 c-3 -5 -21 -10 -39 -10 -33 0 -96 -25 -96 -38 0 -10 -49
-30 -92 -37 -20 -4 -46 -18 -59 -31 -12 -13 -26 -24 -31 -24 -5 0 -18 -8 -29
-19 -11 -10 -39 -21 -62 -24 -23 -3 -43 -11 -45 -16 -4 -13 -208 -15 -216 -2
-3 4 -31 11 -62 14 -36 4 -64 13 -78 26 -11 11 -33 23 -48 26 -16 4 -28 11
-28 16 0 15 -28 10 -37 -6 -10 -17 -101 -65 -124 -65 -8 0 -26 -11 -39 -25
-13 -14 -29 -25 -35 -25 -7 0 -20 -9 -30 -20 -10 -11 -25 -20 -34 -20 -9 0
-39 -22 -66 -50 -27 -27 -57 -50 -66 -50 -9 0 -39 -22 -67 -49 -27 -28 -61
-53 -75 -56 -75 -19 -58 -80 33 -122 8 -3 17 -9 20 -12 3 -3 14 -11 25 -17 14
-8 21 -23 23 -53 2 -22 7 -41 13 -41 5 0 9 -15 9 -34 0 -28 -7 -41 -37 -65
-21 -17 -47 -31 -59 -31 -11 0 -24 -3 -28 -7 -10 -10 -66 -11 -72 -1 -3 4 -16
8 -29 8 -13 0 -27 5 -30 10 -3 6 -13 10 -22 10 -8 0 -31 8 -50 17 -28 13 -39
14 -54 5 -10 -7 -27 -12 -38 -12 -10 0 -24 -7 -31 -15 -7 -8 -18 -15 -24 -16
-12 0 -116 -121 -116 -135 0 -13 -53 -64 -67 -64 -8 0 -13 -12 -13 -28 0 -29
-29 -63 -62 -75 -11 -4 -18 -17 -18 -30 0 -13 -9 -32 -20 -42 -11 -10 -20 -24
-20 -30 0 -7 -9 -15 -19 -18 -11 -3 -26 -20 -34 -38 -8 -19 -21 -40 -30 -48
-9 -7 -19 -28 -23 -47 -5 -30 -1 -38 45 -85 28 -28 51 -48 52 -43 0 5 4 -1 9
-13 5 -13 16 -23 25 -23 8 0 15 -6 15 -13 0 -7 18 -30 40 -52 25 -25 42 -52
46 -74 4 -20 15 -42 26 -49 10 -7 18 -20 18 -28 0 -8 6 -14 13 -14 14 0 37
-45 37 -72 0 -10 4 -26 9 -36 5 -9 12 -24 15 -32 4 -8 16 -31 28 -50 16 -27
22 -56 26 -125 2 -49 8 -94 13 -99 5 -6 9 -45 9 -87 0 -43 5 -81 10 -84 6 -3
10 -42 10 -86 0 -46 -4 -79 -10 -79 -6 0 -10 -35 -10 -85 0 -50 -4 -85 -10
-85 -5 0 -10 -17 -10 -37 0 -38 -8 -56 -45 -108 -11 -16 -20 -38 -20 -49 -2
-32 -35 -96 -71 -140 -18 -21 -33 -41 -32 -45 5 -25 -121 -171 -147 -171 -7 0
-22 -11 -35 -25 -13 -14 -29 -25 -35 -25 -6 0 -17 -11 -25 -24 -7 -13 -22 -27
-33 -30 -17 -4 -19 -11 -15 -61 3 -31 9 -60 14 -63 12 -8 44 -75 44 -91 0 -6
5 -11 10 -11 6 0 10 -15 10 -34 0 -19 4 -37 10 -41 5 -3 7 -12 4 -19 -3 -8 -1
-17 5 -21 6 -3 11 -14 11 -24 0 -10 11 -28 25 -41 14 -13 25 -32 25 -42 0 -10
4 -26 9 -36 19 -38 30 -69 35 -103 4 -20 17 -46 31 -59 14 -13 25 -29 25 -37
0 -7 4 -13 9 -13 8 0 20 -26 26 -55 6 -28 19 -45 36 -45 10 0 19 5 19 10 0 6
6 10 13 10 8 0 24 11 37 25 29 31 75 55 107 55 12 0 23 5 23 10 0 6 24 10 53
10 48 0 57 -4 87 -35 19 -19 40 -35 47 -35 15 0 18 -90 4 -118 -6 -9 -12 -30
-16 -45 -3 -15 -13 -30 -23 -33 -9 -4 -31 -12 -49 -20 -17 -8 -35 -14 -40 -14
-5 0 -20 -11 -33 -25 -13 -14 -28 -25 -34 -25 -6 0 -17 -13 -24 -30 -15 -33
-8 -51 32 -89 14 -14 26 -29 26 -35 0 -6 9 -17 20 -24 11 -7 20 -18 20 -25 0
-7 18 -31 40 -52 22 -21 40 -44 40 -50 0 -15 53 -65 68 -65 7 0 12 -7 12 -15
0 -17 143 -157 171 -167 11 -4 22 -16 26 -25 11 -31 47 -64 92 -85 24 -11 46
-28 48 -39 3 -10 12 -19 19 -19 8 0 14 -4 14 -10 0 -5 4 -10 10 -10 22 0 90
-36 90 -47 0 -7 6 -13 14 -13 8 0 16 -6 19 -12 3 -9 14 -4 34 15 16 15 32 27
36 27 13 0 43 36 60 72 10 20 27 40 40 44 12 3 30 14 39 23 45 43 48 44 123
38 68 -5 76 -8 104 -39 28 -31 30 -38 31 -110 0 -46 -4 -78 -10 -78 -5 0 -10
-7 -10 -15 0 -8 -7 -15 -15 -15 -8 0 -15 -6 -15 -12 0 -7 -9 -24 -20 -38 -23
-30 -11 -50 30 -50 15 0 35 -9 45 -20 12 -14 37 -21 86 -26 38 -4 72 -11 75
-15 3 -5 18 -9 34 -9 16 0 31 -4 34 -9 3 -5 31 -12 62 -16 32 -4 64 -11 73
-15 9 -5 23 -11 31 -14 8 -4 29 -15 45 -25 17 -11 49 -20 72 -20 23 -1 44 -5
47 -10 3 -4 24 -11 46 -15 22 -3 40 -10 40 -15 0 -5 8 -12 18 -15 32 -13 62
-31 62 -38 0 -5 9 -8 20 -8 11 0 20 -4 20 -9 0 -4 15 -12 33 -17 18 -5 36 -19
42 -32 5 -12 15 -22 22 -22 7 0 13 -4 13 -8 0 -5 16 -14 35 -22 19 -7 47 -26
62 -42 15 -15 32 -28 38 -28 7 0 20 -9 30 -20 10 -11 26 -20 35 -20 9 0 29
-13 45 -30 16 -16 37 -30 46 -30 10 0 21 -5 24 -10 11 -17 60 -11 102 13 22
12 65 39 97 59 31 21 60 38 64 38 5 0 19 12 33 26 13 14 43 34 65 45 23 10 44
25 48 34 3 8 16 20 28 25 22 10 42 21 121 70 17 11 40 23 50 26 9 4 17 10 17
14 0 5 23 11 52 15 29 4 60 11 70 16 10 5 26 13 36 18 10 5 32 12 49 15 17 4
39 16 48 26 12 13 37 21 86 26 38 4 72 11 75 15 3 5 23 9 45 9 21 0 39 4 39 9
0 5 25 13 55 16 30 4 58 11 61 16 3 5 23 9 45 9 28 0 39 4 39 15 0 8 7 15 15
15 26 0 16 30 -25 79 -39 46 -40 49 -40 123 0 74 1 78 35 112 19 20 43 36 54
36 11 0 23 5 26 10 3 6 25 10 49 10 35 0 48 -6 77 -36 18 -20 44 -40 56 -45
12 -4 31 -29 43 -54 11 -25 26 -45 34 -45 7 0 23 -11 36 -25 24 -25 64 -33 75
-15 6 9 87 50 99 50 4 0 22 17 41 39 19 21 50 44 68 51 41 17 67 39 78 68 5
12 19 26 33 31 13 6 52 39 87 74 144 145 169 175 185 219 3 9 14 18 25 21 10
3 22 13 26 24 8 23 72 104 96 121 9 7 17 20 17 28 0 22 -30 64 -46 64 -8 0
-14 7 -14 15 0 8 -7 15 -15 15 -8 0 -15 3 -15 8 0 6 -72 42 -86 42 -15 0 -36
33 -41 65 -3 19 -10 35 -15 35 -5 0 -8 23 -6 52 3 45 7 54 33 70 17 10 38 21
48 24 9 4 17 10 17 15 0 12 95 12 118 0 9 -5 33 -16 52 -25 19 -8 46 -26 59
-40 14 -14 30 -26 38 -26 7 0 13 -4 13 -10 0 -5 6 -10 13 -10 16 0 50 34 42
42 -9 9 46 101 72 121 14 12 23 29 23 47 0 16 5 32 10 35 6 3 10 21 10 39 0
36 20 86 35 86 12 0 47 80 50 112 0 3 3 10 8 14 4 4 7 22 7 41 0 18 5 33 10
33 6 0 10 11 10 24 0 13 7 29 15 36 8 7 15 19 15 26 0 8 4 14 9 14 5 0 13 25
16 55 6 46 4 59 -10 75 -10 11 -23 20 -30 20 -6 0 -26 16 -45 35 -19 19 -39
35 -45 35 -19 0 -144 134 -150 162 -4 14 -21 44 -38 65 -41 49 -57 78 -57 102
0 11 -4 23 -10 26 -5 3 -10 16 -10 29 0 12 -11 33 -24 45 -18 17 -27 39 -32
77 -3 30 -10 57 -15 60 -5 3 -9 29 -9 59 0 30 -4 57 -10 60 -6 3 -10 50 -10
105 0 55 4 102 10 105 6 3 10 37 10 74 0 37 4 71 9 77 5 5 11 55 13 111 3 87
7 106 25 125 20 22 34 55 38 88 2 18 13 48 26 72 5 10 9 24 9 32 0 7 11 21 24
29 12 9 31 30 40 49 33 63 44 79 70 107 14 15 26 31 26 37 0 5 10 16 22 24 12
8 46 38 76 66 46 45 52 55 47 80 -9 39 -27 77 -42 87 -7 4 -13 14 -13 20 0 7
-20 33 -45 57 -25 25 -44 49 -41 55 5 13 -13 36 -38 51 -11 5 -27 25 -37 44
-10 18 -34 50 -54 70 -19 20 -35 41 -35 47 0 17 -135 153 -152 153 -9 0 -21 7
-28 15 -16 19 -50 19 -86 0 -16 -8 -37 -15 -46 -15 -9 0 -20 -4 -23 -10 -3 -5
-46 -10 -96 -10 -53 0 -89 4 -89 10 0 6 -10 10 -23 10 -13 0 -28 5 -35 12 -14
14 -16 98 -3 98 6 0 11 19 13 41 2 29 9 45 23 53 10 6 25 16 32 23 7 6 26 17
43 25 26 11 30 18 30 54 0 35 -4 43 -23 48 -13 3 -59 37 -103 76 -43 38 -84
70 -90 70 -5 0 -23 14 -39 30 -16 17 -34 30 -40 30 -21 0 -65 25 -65 38 0 6
-6 12 -13 12 -8 0 -22 9 -31 19 -10 11 -32 23 -49 27 -35 7 -68 24 -79 39 -4
6 -32 10 -62 10 -42 0 -60 -5 -78 -21 -13 -12 -44 -25 -70 -28 -26 -4 -50 -11
-53 -17 -8 -12 -235 -12 -235 0 0 5 -22 12 -50 16 -27 4 -50 11 -50 16 0 5 -6
9 -13 9 -7 0 -28 15 -46 34 -23 24 -47 37 -74 42 -48 8 -72 20 -103 52 -16 16
-33 22 -68 22 -25 0 -46 5 -46 10 0 6 -31 10 -74 10 -41 0 -78 -4 -81 -10 -3
-5 -23 -10 -44 -10 -23 0 -63 -13 -105 -35 -38 -19 -73 -35 -78 -35 -17 0 -98
-40 -98 -49 0 -5 -9 -11 -20 -14 -11 -3 -20 -12 -20 -21 0 -9 -6 -16 -13 -16
-8 0 -24 -11 -37 -25 -22 -23 -30 -25 -115 -25 -91 0 -91 0 -125 35 -19 19
-38 35 -42 35 -5 0 -19 10 -31 23 -30 30 -58 44 -103 53 -22 3 -48 14 -59 24
-33 28 -86 50 -122 50 -18 0 -33 5 -33 10 0 6 -33 10 -79 10 -44 0 -83 -4 -86
-10z m837 -1511 c140 -2 165 -15 174 -88 8 -62 45 -111 86 -111 30 -1 108 -36
108 -50 0 -6 -7 -27 -15 -47 -18 -43 -20 -35 10 -69 15 -17 27 -46 30 -74 3
-25 7 -55 9 -68 3 -18 -6 -30 -36 -49 -22 -15 -46 -39 -54 -55 -8 -15 -30 -34
-49 -42 -19 -8 -35 -21 -35 -29 0 -23 -40 -57 -66 -57 -32 0 -124 -50 -124
-67 0 -15 -32 -33 -60 -33 -28 0 -80 -28 -80 -43 0 -6 -17 -23 -38 -37 -20
-13 -51 -39 -69 -56 l-32 -32 29 -59 c34 -70 55 -90 94 -95 25 -2 34 3 50 30
12 18 48 62 81 98 50 53 68 66 100 71 22 3 67 20 100 38 33 18 91 40 129 49
39 10 85 29 105 44 36 28 77 45 138 57 18 4 43 19 56 35 15 17 46 35 81 46 43
13 65 28 87 55 16 20 45 44 64 54 20 9 41 27 47 39 5 13 28 33 49 46 24 13 46
36 57 58 11 23 26 38 42 42 16 4 32 20 46 47 11 23 39 60 62 83 22 22 43 54
47 70 3 16 13 34 21 41 21 17 30 2 37 -64 7 -54 45 -107 78 -107 43 0 67 -31
34 -44 -8 -3 -15 -16 -15 -29 0 -13 -5 -28 -11 -34 -6 -6 -15 -28 -19 -49 -8
-32 -4 -54 17 -119 14 -44 34 -86 45 -94 25 -19 23 -28 -9 -34 -38 -8 -111
-57 -116 -78 -3 -10 10 -48 28 -86 17 -37 35 -80 38 -95 6 -24 3 -28 -31 -38
-90 -29 -131 -53 -157 -90 -15 -21 -33 -41 -41 -44 -8 -3 -14 -17 -14 -32 0
-37 -64 -99 -120 -115 -63 -18 -88 -36 -95 -69 -9 -41 -21 -47 -105 -54 -104
-8 -119 -14 -168 -62 -43 -42 -45 -42 -98 -37 -45 5 -59 2 -87 -17 -19 -13
-38 -32 -43 -43 -7 -16 -25 -24 -83 -33 -75 -13 -127 -40 -124 -65 2 -18 22
-77 37 -109 6 -14 26 -32 44 -42 18 -9 46 -36 61 -60 16 -25 42 -50 58 -57 17
-7 40 -25 52 -42 27 -37 44 -37 71 0 11 17 38 38 60 47 27 12 45 29 56 53 9
20 30 50 48 67 17 18 38 43 48 56 9 13 34 30 57 36 22 7 53 23 68 35 46 38 96
34 205 -16 87 -41 138 -81 138 -111 0 -6 14 -25 30 -43 20 -22 32 -47 36 -77
6 -39 3 -47 -19 -66 -14 -12 -28 -34 -32 -48 -9 -37 -44 -111 -66 -141 -10
-14 -28 -59 -39 -99 -16 -59 -18 -81 -10 -110 14 -53 13 -66 -11 -96 l-22 -27
-28 27 c-16 15 -31 36 -35 46 -3 10 -30 33 -61 50 -58 33 -89 72 -99 126 -6
32 7 63 47 105 9 10 31 44 48 75 18 32 40 72 51 91 13 23 16 39 10 50 -17 32
-110 121 -126 121 -9 0 -42 -14 -74 -31 -48 -25 -61 -39 -81 -80 -12 -28 -34
-57 -48 -66 -15 -8 -38 -32 -53 -54 -23 -32 -34 -39 -63 -40 -19 -1 -38 -3
-42 -4 -5 -2 -18 -6 -31 -10 -12 -4 -29 -20 -38 -36 -8 -16 -34 -51 -59 -79
-61 -69 -71 -109 -50 -215 2 -11 26 -33 54 -49 27 -16 53 -37 58 -47 4 -9 28
-32 53 -51 63 -47 96 -120 118 -261 16 -97 23 -119 55 -165 20 -29 39 -68 43
-87 6 -33 -18 -140 -34 -147 -4 -2 -19 -22 -34 -45 -19 -28 -37 -43 -58 -48
-37 -8 -107 3 -117 18 -14 23 -2 102 18 119 56 48 61 170 8 219 -34 32 -49 67
-49 117 -1 52 -32 115 -71 144 -19 13 -61 32 -94 42 -85 24 -115 37 -115 48 0
5 -25 20 -55 34 -72 31 -116 72 -149 139 -35 69 -40 72 -106 79 -80 9 -110
-22 -110 -112 0 -60 -26 -98 -73 -107 -37 -7 -136 -40 -185 -62 -18 -8 -62
-20 -97 -28 -39 -8 -87 -27 -118 -47 -28 -19 -74 -39 -100 -46 -46 -12 -52
-11 -97 14 l-49 27 20 28 c11 15 24 42 30 58 11 30 14 32 144 91 119 54 144
62 210 67 122 8 145 28 145 123 0 44 -4 54 -42 92 -48 50 -61 102 -42 168 17
57 35 75 98 94 57 18 96 47 96 72 0 23 -110 134 -139 141 -30 6 -81 51 -81 69
0 7 -9 16 -21 19 -12 4 -45 30 -74 58 -119 116 -251 239 -265 246 -8 5 -34 11
-57 15 -23 3 -74 24 -115 45 -64 35 -82 40 -149 43 -74 3 -77 2 -117 -32 -22
-19 -51 -42 -64 -52 -13 -9 -30 -35 -37 -57 -9 -32 -20 -46 -46 -58 -27 -13
-43 -33 -71 -87 -19 -39 -44 -80 -54 -91 -9 -11 -23 -30 -29 -42 -17 -32 -30
-29 -47 13 -12 29 -14 59 -8 151 6 106 9 115 32 134 14 11 33 33 43 48 10 16
39 38 66 51 27 12 55 33 64 49 10 17 30 31 57 39 22 7 51 25 62 40 33 41 88
53 206 46 108 -7 152 5 174 46 6 11 18 20 27 20 14 0 13 4 -5 20 -12 12 -22
25 -22 29 0 5 -26 33 -57 64 -40 39 -69 59 -100 66 -26 7 -43 17 -43 26 0 8
-13 29 -29 47 -28 32 -32 33 -106 33 l-77 0 -37 -41 c-20 -23 -45 -45 -57 -48
-39 -12 -122 -102 -135 -148 -12 -44 -52 -88 -80 -88 -8 0 -20 -5 -26 -11 -8
-8 -15 -4 -26 17 -12 25 -13 36 -1 73 7 25 24 55 37 67 16 14 27 39 31 68 7
43 11 48 54 69 26 12 51 32 57 44 6 15 27 28 64 40 41 13 58 24 73 49 25 42
54 61 111 69 64 10 110 -8 153 -60 30 -37 44 -46 88 -55 33 -7 66 -22 85 -39
26 -23 41 -29 81 -29 41 0 53 5 74 29 17 19 48 35 94 48 41 13 83 33 103 51
19 17 45 33 59 37 35 8 81 32 112 58 31 26 123 45 222 45 75 0 129 18 145 49
12 21 -3 116 -19 126 -5 3 -7 12 -4 19 10 27 -82 48 -236 53 -165 6 -207 19
-227 72 -10 27 -9 33 9 45 11 8 63 22 116 32 75 14 105 25 133 47 25 20 45 27
64 24 33 -4 44 -27 37 -79 -2 -20 -2 -49 2 -63 7 -26 41 -46 64 -37 14 5 41
62 41 89 0 10 3 33 7 51 6 29 2 37 -28 65 -27 24 -38 46 -47 86 -14 67 -6 79
57 83 43 3 50 0 84 -34 28 -28 46 -38 70 -39z"/>
</g>
</svg>
